<mxfile host="app.diagrams.net" modified="2023-04-14T09:34:44.712Z" agent="Mozilla/5.0 (Windows NT 10.0; Win64; x64) AppleWebKit/537.36 (KHTML, like Gecko) Chrome/112.0.0.0 Safari/537.36" etag="qJGje1Tfz755gUXSGHBi" version="21.1.5" type="device">
  <diagram name="Page-1" id="rDroMqvgq4sp8sMrG8O2">
    <mxGraphModel dx="918" dy="1550" grid="1" gridSize="10" guides="1" tooltips="1" connect="1" arrows="1" fold="1" page="1" pageScale="1" pageWidth="850" pageHeight="1100" math="0" shadow="0">
      <root>
        <mxCell id="0" />
        <mxCell id="1" parent="0" />
        <mxCell id="DVrZE9xDPVvh2_FHzCL8-2" value="positions" style="shape=umlFrame;whiteSpace=wrap;html=1;pointerEvents=0;fillColor=#dae8fc;strokeColor=#6c8ebf;strokeWidth=5;" parent="1" vertex="1">
          <mxGeometry x="353" y="-320" width="300" height="265" as="geometry" />
        </mxCell>
        <mxCell id="DVrZE9xDPVvh2_FHzCL8-3" value="&lt;i&gt;Ground&lt;/i&gt;" style="html=1;whiteSpace=wrap;" parent="1" vertex="1">
          <mxGeometry x="453" y="-185" width="110" height="50" as="geometry" />
        </mxCell>
        <mxCell id="DVrZE9xDPVvh2_FHzCL8-4" value="environments" style="shape=umlFrame;whiteSpace=wrap;html=1;pointerEvents=0;width=85;height=30;fillColor=#dae8fc;strokeColor=#6c8ebf;strokeWidth=5;" parent="1" vertex="1">
          <mxGeometry x="258" y="800" width="500" height="400" as="geometry" />
        </mxCell>
        <mxCell id="DVrZE9xDPVvh2_FHzCL8-19" style="edgeStyle=orthogonalEdgeStyle;rounded=0;orthogonalLoop=1;jettySize=auto;html=1;exitX=0.5;exitY=0;exitDx=0;exitDy=0;entryX=0.5;entryY=1;entryDx=0;entryDy=0;endArrow=block;endFill=0;" parent="1" source="DVrZE9xDPVvh2_FHzCL8-6" target="DVrZE9xDPVvh2_FHzCL8-3" edge="1">
          <mxGeometry relative="1" as="geometry" />
        </mxCell>
        <mxCell id="DVrZE9xDPVvh2_FHzCL8-20" value="Extends" style="edgeLabel;html=1;align=center;verticalAlign=middle;resizable=0;points=[];" parent="DVrZE9xDPVvh2_FHzCL8-19" vertex="1" connectable="0">
          <mxGeometry x="-0.0982" y="1" relative="1" as="geometry">
            <mxPoint x="1" y="-219" as="offset" />
          </mxGeometry>
        </mxCell>
        <mxCell id="DVrZE9xDPVvh2_FHzCL8-43" style="edgeStyle=orthogonalEdgeStyle;rounded=0;orthogonalLoop=1;jettySize=auto;html=1;exitX=1;exitY=0.5;exitDx=0;exitDy=0;entryX=0;entryY=0.5;entryDx=0;entryDy=0;dashed=1;endArrow=open;endFill=0;" parent="1" source="DVrZE9xDPVvh2_FHzCL8-6" target="DVrZE9xDPVvh2_FHzCL8-41" edge="1">
          <mxGeometry relative="1" as="geometry" />
        </mxCell>
        <mxCell id="DVrZE9xDPVvh2_FHzCL8-48" value="&amp;lt;&amp;lt;Uses&amp;gt;&amp;gt;" style="edgeLabel;html=1;align=center;verticalAlign=middle;resizable=0;points=[];" parent="DVrZE9xDPVvh2_FHzCL8-43" vertex="1" connectable="0">
          <mxGeometry x="0.3832" y="2" relative="1" as="geometry">
            <mxPoint x="-10" y="2" as="offset" />
          </mxGeometry>
        </mxCell>
        <mxCell id="nA44q0fjmFgXWdIEp-3O-10" style="edgeStyle=orthogonalEdgeStyle;rounded=0;orthogonalLoop=1;jettySize=auto;html=1;exitX=0;exitY=0.5;exitDx=0;exitDy=0;entryX=0;entryY=0.5;entryDx=0;entryDy=0;dashed=1;endArrow=open;endFill=0;" parent="1" source="DVrZE9xDPVvh2_FHzCL8-6" target="nA44q0fjmFgXWdIEp-3O-5" edge="1">
          <mxGeometry relative="1" as="geometry">
            <Array as="points">
              <mxPoint x="420" y="895" />
              <mxPoint x="420" y="-275" />
            </Array>
          </mxGeometry>
        </mxCell>
        <mxCell id="nA44q0fjmFgXWdIEp-3O-11" value="&amp;lt;&amp;lt;Uses&amp;gt;&amp;gt;" style="edgeLabel;html=1;align=center;verticalAlign=middle;resizable=0;points=[];" parent="nA44q0fjmFgXWdIEp-3O-10" vertex="1" connectable="0">
          <mxGeometry x="0.1768" y="-3" relative="1" as="geometry">
            <mxPoint x="-3" as="offset" />
          </mxGeometry>
        </mxCell>
        <mxCell id="DVrZE9xDPVvh2_FHzCL8-6" value="&lt;i&gt;Spawner&lt;/i&gt;" style="html=1;whiteSpace=wrap;" parent="1" vertex="1">
          <mxGeometry x="453" y="870" width="110" height="50" as="geometry" />
        </mxCell>
        <mxCell id="DVrZE9xDPVvh2_FHzCL8-13" style="edgeStyle=orthogonalEdgeStyle;rounded=0;orthogonalLoop=1;jettySize=auto;html=1;exitX=0.5;exitY=0;exitDx=0;exitDy=0;entryX=0.5;entryY=1;entryDx=0;entryDy=0;endArrow=block;endFill=0;" parent="1" source="DVrZE9xDPVvh2_FHzCL8-7" target="DVrZE9xDPVvh2_FHzCL8-6" edge="1">
          <mxGeometry relative="1" as="geometry" />
        </mxCell>
        <mxCell id="DVrZE9xDPVvh2_FHzCL8-16" value="Extends" style="edgeLabel;html=1;align=center;verticalAlign=middle;resizable=0;points=[];" parent="DVrZE9xDPVvh2_FHzCL8-13" vertex="1" connectable="0">
          <mxGeometry x="-0.7029" relative="1" as="geometry">
            <mxPoint y="-22" as="offset" />
          </mxGeometry>
        </mxCell>
        <mxCell id="DVrZE9xDPVvh2_FHzCL8-7" value="GustOfWind" style="html=1;whiteSpace=wrap;" parent="1" vertex="1">
          <mxGeometry x="453" y="1040" width="110" height="50" as="geometry" />
        </mxCell>
        <mxCell id="DVrZE9xDPVvh2_FHzCL8-14" style="edgeStyle=orthogonalEdgeStyle;rounded=0;orthogonalLoop=1;jettySize=auto;html=1;exitX=0.5;exitY=0;exitDx=0;exitDy=0;entryX=0.5;entryY=1;entryDx=0;entryDy=0;endArrow=block;endFill=0;" parent="1" source="DVrZE9xDPVvh2_FHzCL8-8" target="DVrZE9xDPVvh2_FHzCL8-6" edge="1">
          <mxGeometry relative="1" as="geometry" />
        </mxCell>
        <mxCell id="DVrZE9xDPVvh2_FHzCL8-17" value="Extends" style="edgeLabel;html=1;align=center;verticalAlign=middle;resizable=0;points=[];" parent="DVrZE9xDPVvh2_FHzCL8-14" vertex="1" connectable="0">
          <mxGeometry x="-0.868" y="-1" relative="1" as="geometry">
            <mxPoint x="-1" y="-22" as="offset" />
          </mxGeometry>
        </mxCell>
        <mxCell id="DVrZE9xDPVvh2_FHzCL8-8" value="PuddleOfWater" style="html=1;whiteSpace=wrap;" parent="1" vertex="1">
          <mxGeometry x="603" y="1040" width="110" height="50" as="geometry" />
        </mxCell>
        <mxCell id="DVrZE9xDPVvh2_FHzCL8-12" style="edgeStyle=orthogonalEdgeStyle;rounded=0;orthogonalLoop=1;jettySize=auto;html=1;exitX=0.5;exitY=0;exitDx=0;exitDy=0;entryX=0.5;entryY=1;entryDx=0;entryDy=0;endArrow=block;endFill=0;" parent="1" source="DVrZE9xDPVvh2_FHzCL8-9" target="DVrZE9xDPVvh2_FHzCL8-6" edge="1">
          <mxGeometry relative="1" as="geometry" />
        </mxCell>
        <mxCell id="DVrZE9xDPVvh2_FHzCL8-18" value="Extends" style="edgeLabel;html=1;align=center;verticalAlign=middle;resizable=0;points=[];" parent="DVrZE9xDPVvh2_FHzCL8-12" vertex="1" connectable="0">
          <mxGeometry x="-0.8854" y="2" relative="1" as="geometry">
            <mxPoint x="2" y="-25" as="offset" />
          </mxGeometry>
        </mxCell>
        <mxCell id="DVrZE9xDPVvh2_FHzCL8-9" value="Graveyard" style="html=1;whiteSpace=wrap;" parent="1" vertex="1">
          <mxGeometry x="303" y="1040" width="110" height="50" as="geometry" />
        </mxCell>
        <mxCell id="DVrZE9xDPVvh2_FHzCL8-21" value="actors" style="shape=umlFrame;whiteSpace=wrap;html=1;pointerEvents=0;fillColor=#dae8fc;strokeColor=#6c8ebf;strokeWidth=5;" parent="1" vertex="1">
          <mxGeometry x="1173" y="-255" width="300" height="200" as="geometry" />
        </mxCell>
        <mxCell id="DVrZE9xDPVvh2_FHzCL8-22" value="&lt;i&gt;Actor&lt;/i&gt;" style="html=1;whiteSpace=wrap;" parent="1" vertex="1">
          <mxGeometry x="1268" y="-185" width="110" height="50" as="geometry" />
        </mxCell>
        <mxCell id="DVrZE9xDPVvh2_FHzCL8-23" value="enemies" style="shape=umlFrame;whiteSpace=wrap;html=1;pointerEvents=0;fillColor=#dae8fc;strokeColor=#6c8ebf;strokeWidth=5;" parent="1" vertex="1">
          <mxGeometry x="880" y="720" width="838" height="480" as="geometry" />
        </mxCell>
        <mxCell id="DVrZE9xDPVvh2_FHzCL8-39" style="edgeStyle=orthogonalEdgeStyle;rounded=0;orthogonalLoop=1;jettySize=auto;html=1;exitX=0.5;exitY=0;exitDx=0;exitDy=0;entryX=0.5;entryY=1;entryDx=0;entryDy=0;endArrow=block;endFill=0;" parent="1" source="JSlfss8V1tPt0fPpGnAS-1" target="DVrZE9xDPVvh2_FHzCL8-22" edge="1">
          <mxGeometry relative="1" as="geometry" />
        </mxCell>
        <mxCell id="DVrZE9xDPVvh2_FHzCL8-40" value="Extends" style="edgeLabel;html=1;align=center;verticalAlign=middle;resizable=0;points=[];" parent="DVrZE9xDPVvh2_FHzCL8-39" vertex="1" connectable="0">
          <mxGeometry x="-0.083" y="-1" relative="1" as="geometry">
            <mxPoint x="-1" y="-148" as="offset" />
          </mxGeometry>
        </mxCell>
        <mxCell id="DVrZE9xDPVvh2_FHzCL8-74" style="edgeStyle=orthogonalEdgeStyle;rounded=0;orthogonalLoop=1;jettySize=auto;html=1;entryX=0;entryY=0.5;entryDx=0;entryDy=0;endArrow=open;endFill=0;exitX=1;exitY=0.5;exitDx=0;exitDy=0;" parent="1" source="DVrZE9xDPVvh2_FHzCL8-24" target="DVrZE9xDPVvh2_FHzCL8-62" edge="1">
          <mxGeometry relative="1" as="geometry">
            <mxPoint x="1351" y="860" as="sourcePoint" />
            <Array as="points">
              <mxPoint x="1400" y="895" />
              <mxPoint x="1400" y="375" />
            </Array>
          </mxGeometry>
        </mxCell>
        <mxCell id="DVrZE9xDPVvh2_FHzCL8-75" value="Has" style="edgeLabel;html=1;align=center;verticalAlign=middle;resizable=0;points=[];" parent="DVrZE9xDPVvh2_FHzCL8-74" vertex="1" connectable="0">
          <mxGeometry x="0.1846" y="2" relative="1" as="geometry">
            <mxPoint x="2" y="2" as="offset" />
          </mxGeometry>
        </mxCell>
        <mxCell id="DVrZE9xDPVvh2_FHzCL8-76" value="1" style="edgeLabel;html=1;align=center;verticalAlign=middle;resizable=0;points=[];" parent="DVrZE9xDPVvh2_FHzCL8-74" vertex="1" connectable="0">
          <mxGeometry x="-0.9545" relative="1" as="geometry">
            <mxPoint x="10" y="9" as="offset" />
          </mxGeometry>
        </mxCell>
        <mxCell id="DVrZE9xDPVvh2_FHzCL8-77" value="1..4" style="edgeLabel;html=1;align=center;verticalAlign=middle;resizable=0;points=[];" parent="DVrZE9xDPVvh2_FHzCL8-74" vertex="1" connectable="0">
          <mxGeometry x="0.9307" relative="1" as="geometry">
            <mxPoint x="14" y="-15" as="offset" />
          </mxGeometry>
        </mxCell>
        <mxCell id="JSlfss8V1tPt0fPpGnAS-3" style="edgeStyle=orthogonalEdgeStyle;rounded=0;orthogonalLoop=1;jettySize=auto;html=1;exitX=0.5;exitY=0;exitDx=0;exitDy=0;entryX=0.5;entryY=1;entryDx=0;entryDy=0;endArrow=block;endFill=0;" edge="1" parent="1" source="DVrZE9xDPVvh2_FHzCL8-24" target="JSlfss8V1tPt0fPpGnAS-1">
          <mxGeometry relative="1" as="geometry" />
        </mxCell>
        <mxCell id="JSlfss8V1tPt0fPpGnAS-4" value="Extends" style="edgeLabel;html=1;align=center;verticalAlign=middle;resizable=0;points=[];" vertex="1" connectable="0" parent="JSlfss8V1tPt0fPpGnAS-3">
          <mxGeometry x="-0.1666" y="2" relative="1" as="geometry">
            <mxPoint x="2" y="-3" as="offset" />
          </mxGeometry>
        </mxCell>
        <mxCell id="JSlfss8V1tPt0fPpGnAS-11" style="edgeStyle=orthogonalEdgeStyle;rounded=0;orthogonalLoop=1;jettySize=auto;html=1;exitX=0;exitY=0.25;exitDx=0;exitDy=0;entryX=0.5;entryY=1;entryDx=0;entryDy=0;endArrow=open;endFill=0;" edge="1" parent="1" source="DVrZE9xDPVvh2_FHzCL8-24" target="DVrZE9xDPVvh2_FHzCL8-150">
          <mxGeometry relative="1" as="geometry" />
        </mxCell>
        <mxCell id="JSlfss8V1tPt0fPpGnAS-13" value="Has" style="edgeLabel;html=1;align=center;verticalAlign=middle;resizable=0;points=[];" vertex="1" connectable="0" parent="JSlfss8V1tPt0fPpGnAS-11">
          <mxGeometry x="0.2867" y="-1" relative="1" as="geometry">
            <mxPoint as="offset" />
          </mxGeometry>
        </mxCell>
        <mxCell id="JSlfss8V1tPt0fPpGnAS-15" value="1" style="edgeLabel;html=1;align=center;verticalAlign=middle;resizable=0;points=[];" vertex="1" connectable="0" parent="JSlfss8V1tPt0fPpGnAS-11">
          <mxGeometry x="-0.9431" y="-2" relative="1" as="geometry">
            <mxPoint x="9" y="-10" as="offset" />
          </mxGeometry>
        </mxCell>
        <mxCell id="JSlfss8V1tPt0fPpGnAS-18" value="1" style="edgeLabel;html=1;align=center;verticalAlign=middle;resizable=0;points=[];" vertex="1" connectable="0" parent="JSlfss8V1tPt0fPpGnAS-11">
          <mxGeometry x="0.9378" y="-3" relative="1" as="geometry">
            <mxPoint x="14" y="-8" as="offset" />
          </mxGeometry>
        </mxCell>
        <mxCell id="DVrZE9xDPVvh2_FHzCL8-24" value="&lt;i&gt;Enemy&lt;/i&gt;" style="html=1;whiteSpace=wrap;" parent="1" vertex="1">
          <mxGeometry x="1268" y="870" width="110" height="50" as="geometry" />
        </mxCell>
        <mxCell id="DVrZE9xDPVvh2_FHzCL8-33" style="edgeStyle=orthogonalEdgeStyle;rounded=0;orthogonalLoop=1;jettySize=auto;html=1;exitX=0.5;exitY=0;exitDx=0;exitDy=0;endArrow=block;endFill=0;" parent="1" source="DVrZE9xDPVvh2_FHzCL8-25" target="DVrZE9xDPVvh2_FHzCL8-24" edge="1">
          <mxGeometry relative="1" as="geometry" />
        </mxCell>
        <mxCell id="DVrZE9xDPVvh2_FHzCL8-37" value="Extends" style="edgeLabel;html=1;align=center;verticalAlign=middle;resizable=0;points=[];" parent="DVrZE9xDPVvh2_FHzCL8-33" vertex="1" connectable="0">
          <mxGeometry x="-0.8643" y="-1" relative="1" as="geometry">
            <mxPoint x="-1" y="-27" as="offset" />
          </mxGeometry>
        </mxCell>
        <mxCell id="DVrZE9xDPVvh2_FHzCL8-118" style="edgeStyle=orthogonalEdgeStyle;rounded=0;orthogonalLoop=1;jettySize=auto;html=1;endArrow=open;endFill=0;dashed=1;entryX=0.5;entryY=1;entryDx=0;entryDy=0;exitX=1;exitY=0.75;exitDx=0;exitDy=0;" parent="1" source="DVrZE9xDPVvh2_FHzCL8-25" target="DVrZE9xDPVvh2_FHzCL8-102" edge="1">
          <mxGeometry relative="1" as="geometry">
            <Array as="points">
              <mxPoint x="1470" y="1078" />
              <mxPoint x="1480" y="1078" />
              <mxPoint x="1480" y="1360" />
              <mxPoint x="2425" y="1360" />
            </Array>
            <mxPoint x="1470" y="1065" as="sourcePoint" />
          </mxGeometry>
        </mxCell>
        <mxCell id="DVrZE9xDPVvh2_FHzCL8-119" value="&amp;lt;&amp;lt;Returns&amp;gt;&amp;gt;" style="edgeLabel;html=1;align=center;verticalAlign=middle;resizable=0;points=[];" parent="DVrZE9xDPVvh2_FHzCL8-118" vertex="1" connectable="0">
          <mxGeometry x="-0.12" y="-3" relative="1" as="geometry">
            <mxPoint x="2" y="-4" as="offset" />
          </mxGeometry>
        </mxCell>
        <mxCell id="GWkKmIc5PLOBVZ-B5JVU-7" style="edgeStyle=orthogonalEdgeStyle;rounded=0;orthogonalLoop=1;jettySize=auto;html=1;exitX=1;exitY=0.25;exitDx=0;exitDy=0;entryX=0;entryY=0.5;entryDx=0;entryDy=0;dashed=1;endArrow=block;endFill=0;" parent="1" source="DVrZE9xDPVvh2_FHzCL8-25" target="nA44q0fjmFgXWdIEp-3O-13" edge="1">
          <mxGeometry relative="1" as="geometry">
            <Array as="points">
              <mxPoint x="1480" y="1053" />
              <mxPoint x="1480" y="863" />
            </Array>
          </mxGeometry>
        </mxCell>
        <mxCell id="GWkKmIc5PLOBVZ-B5JVU-8" value="Implements" style="edgeLabel;html=1;align=center;verticalAlign=middle;resizable=0;points=[];" parent="GWkKmIc5PLOBVZ-B5JVU-7" vertex="1" connectable="0">
          <mxGeometry x="-0.0193" y="-2" relative="1" as="geometry">
            <mxPoint x="6" y="-2" as="offset" />
          </mxGeometry>
        </mxCell>
        <mxCell id="DVrZE9xDPVvh2_FHzCL8-25" value="GiantCrab" style="html=1;whiteSpace=wrap;" parent="1" vertex="1">
          <mxGeometry x="1338" y="1040" width="110" height="50" as="geometry" />
        </mxCell>
        <mxCell id="DVrZE9xDPVvh2_FHzCL8-34" style="edgeStyle=orthogonalEdgeStyle;rounded=0;orthogonalLoop=1;jettySize=auto;html=1;exitX=0.5;exitY=0;exitDx=0;exitDy=0;entryX=0.5;entryY=1;entryDx=0;entryDy=0;endArrow=block;endFill=0;" parent="1" source="DVrZE9xDPVvh2_FHzCL8-26" target="DVrZE9xDPVvh2_FHzCL8-24" edge="1">
          <mxGeometry relative="1" as="geometry" />
        </mxCell>
        <mxCell id="DVrZE9xDPVvh2_FHzCL8-38" value="Extends" style="edgeLabel;html=1;align=center;verticalAlign=middle;resizable=0;points=[];" parent="DVrZE9xDPVvh2_FHzCL8-34" vertex="1" connectable="0">
          <mxGeometry x="-0.8989" y="2" relative="1" as="geometry">
            <mxPoint x="2" y="-22" as="offset" />
          </mxGeometry>
        </mxCell>
        <mxCell id="nA44q0fjmFgXWdIEp-3O-1" style="edgeStyle=orthogonalEdgeStyle;rounded=0;orthogonalLoop=1;jettySize=auto;html=1;endArrow=open;endFill=0;exitX=0.5;exitY=1;exitDx=0;exitDy=0;entryX=1;entryY=0.5;entryDx=0;entryDy=0;" parent="1" source="DVrZE9xDPVvh2_FHzCL8-26" target="GWkKmIc5PLOBVZ-B5JVU-1" edge="1">
          <mxGeometry relative="1" as="geometry">
            <Array as="points">
              <mxPoint x="1590" y="1400" />
              <mxPoint x="3560" y="1400" />
              <mxPoint x="3560" y="863" />
            </Array>
          </mxGeometry>
        </mxCell>
        <mxCell id="nA44q0fjmFgXWdIEp-3O-2" value="Has" style="edgeLabel;html=1;align=center;verticalAlign=middle;resizable=0;points=[];" parent="nA44q0fjmFgXWdIEp-3O-1" vertex="1" connectable="0">
          <mxGeometry x="-0.5619" y="1" relative="1" as="geometry">
            <mxPoint x="-110" y="1" as="offset" />
          </mxGeometry>
        </mxCell>
        <mxCell id="nA44q0fjmFgXWdIEp-3O-3" value="1" style="edgeLabel;html=1;align=center;verticalAlign=middle;resizable=0;points=[];" parent="nA44q0fjmFgXWdIEp-3O-1" vertex="1" connectable="0">
          <mxGeometry x="-0.993" y="2" relative="1" as="geometry">
            <mxPoint x="10" as="offset" />
          </mxGeometry>
        </mxCell>
        <mxCell id="nA44q0fjmFgXWdIEp-3O-4" value="1" style="edgeLabel;html=1;align=center;verticalAlign=middle;resizable=0;points=[];" parent="nA44q0fjmFgXWdIEp-3O-1" vertex="1" connectable="0">
          <mxGeometry x="0.968" relative="1" as="geometry">
            <mxPoint x="-31" y="-13" as="offset" />
          </mxGeometry>
        </mxCell>
        <mxCell id="nA44q0fjmFgXWdIEp-3O-25" style="edgeStyle=orthogonalEdgeStyle;rounded=0;orthogonalLoop=1;jettySize=auto;html=1;exitX=1;exitY=0.5;exitDx=0;exitDy=0;entryX=0;entryY=0.5;entryDx=0;entryDy=0;dashed=1;endArrow=open;endFill=0;" parent="1" source="DVrZE9xDPVvh2_FHzCL8-26" target="DVrZE9xDPVvh2_FHzCL8-107" edge="1">
          <mxGeometry relative="1" as="geometry" />
        </mxCell>
        <mxCell id="nA44q0fjmFgXWdIEp-3O-27" value="&amp;lt;&amp;lt;Returns&amp;gt;&amp;gt;" style="edgeLabel;html=1;align=center;verticalAlign=middle;resizable=0;points=[];" parent="nA44q0fjmFgXWdIEp-3O-25" vertex="1" connectable="0">
          <mxGeometry x="-0.0632" y="1" relative="1" as="geometry">
            <mxPoint as="offset" />
          </mxGeometry>
        </mxCell>
        <mxCell id="DVrZE9xDPVvh2_FHzCL8-26" value="HeavySkeletalSwordsman" style="html=1;whiteSpace=wrap;" parent="1" vertex="1">
          <mxGeometry x="1510" y="1040" width="160" height="50" as="geometry" />
        </mxCell>
        <mxCell id="DVrZE9xDPVvh2_FHzCL8-32" style="edgeStyle=orthogonalEdgeStyle;rounded=0;orthogonalLoop=1;jettySize=auto;html=1;exitX=0.5;exitY=0;exitDx=0;exitDy=0;endArrow=block;endFill=0;" parent="1" source="DVrZE9xDPVvh2_FHzCL8-27" target="DVrZE9xDPVvh2_FHzCL8-24" edge="1">
          <mxGeometry relative="1" as="geometry" />
        </mxCell>
        <mxCell id="DVrZE9xDPVvh2_FHzCL8-36" value="Extends" style="edgeLabel;html=1;align=center;verticalAlign=middle;resizable=0;points=[];" parent="DVrZE9xDPVvh2_FHzCL8-32" vertex="1" connectable="0">
          <mxGeometry x="-0.8878" relative="1" as="geometry">
            <mxPoint y="-29" as="offset" />
          </mxGeometry>
        </mxCell>
        <mxCell id="DVrZE9xDPVvh2_FHzCL8-27" value="LoneWolf" style="html=1;whiteSpace=wrap;" parent="1" vertex="1">
          <mxGeometry x="1188" y="1040" width="110" height="50" as="geometry" />
        </mxCell>
        <mxCell id="DVrZE9xDPVvh2_FHzCL8-31" style="edgeStyle=orthogonalEdgeStyle;rounded=0;orthogonalLoop=1;jettySize=auto;html=1;exitX=0.5;exitY=0;exitDx=0;exitDy=0;entryX=0.5;entryY=1;entryDx=0;entryDy=0;endArrow=block;endFill=0;" parent="1" source="DVrZE9xDPVvh2_FHzCL8-28" target="DVrZE9xDPVvh2_FHzCL8-24" edge="1">
          <mxGeometry relative="1" as="geometry" />
        </mxCell>
        <mxCell id="DVrZE9xDPVvh2_FHzCL8-35" value="Extends" style="edgeLabel;html=1;align=center;verticalAlign=middle;resizable=0;points=[];" parent="DVrZE9xDPVvh2_FHzCL8-31" vertex="1" connectable="0">
          <mxGeometry x="-0.9073" y="1" relative="1" as="geometry">
            <mxPoint x="1" y="-24" as="offset" />
          </mxGeometry>
        </mxCell>
        <mxCell id="DVrZE9xDPVvh2_FHzCL8-42" style="edgeStyle=orthogonalEdgeStyle;rounded=0;orthogonalLoop=1;jettySize=auto;html=1;exitX=0;exitY=0.5;exitDx=0;exitDy=0;dashed=1;endArrow=open;endFill=0;" parent="1" source="DVrZE9xDPVvh2_FHzCL8-28" target="DVrZE9xDPVvh2_FHzCL8-41" edge="1">
          <mxGeometry relative="1" as="geometry" />
        </mxCell>
        <mxCell id="DVrZE9xDPVvh2_FHzCL8-46" value="&amp;lt;&amp;lt;Uses&amp;gt;&amp;gt;" style="edgeLabel;html=1;align=center;verticalAlign=middle;resizable=0;points=[];" parent="DVrZE9xDPVvh2_FHzCL8-42" vertex="1" connectable="0">
          <mxGeometry x="0.0913" relative="1" as="geometry">
            <mxPoint x="7" y="-2" as="offset" />
          </mxGeometry>
        </mxCell>
        <mxCell id="DVrZE9xDPVvh2_FHzCL8-28" value="PileOfBones" style="html=1;whiteSpace=wrap;" parent="1" vertex="1">
          <mxGeometry x="1038" y="1040" width="110" height="50" as="geometry" />
        </mxCell>
        <mxCell id="DVrZE9xDPVvh2_FHzCL8-44" style="edgeStyle=orthogonalEdgeStyle;rounded=0;orthogonalLoop=1;jettySize=auto;html=1;dashed=1;endArrow=open;endFill=0;exitX=1;exitY=0.75;exitDx=0;exitDy=0;entryX=0;entryY=0.75;entryDx=0;entryDy=0;" parent="1" source="DVrZE9xDPVvh2_FHzCL8-41" target="DVrZE9xDPVvh2_FHzCL8-24" edge="1">
          <mxGeometry relative="1" as="geometry">
            <Array as="points">
              <mxPoint x="1220" y="908" />
              <mxPoint x="1220" y="908" />
            </Array>
            <mxPoint x="1090" y="895" as="sourcePoint" />
            <mxPoint x="1250" y="900" as="targetPoint" />
          </mxGeometry>
        </mxCell>
        <mxCell id="DVrZE9xDPVvh2_FHzCL8-47" value="&amp;lt;&amp;lt;Returns&amp;gt;&amp;gt;" style="edgeLabel;html=1;align=center;verticalAlign=middle;resizable=0;points=[];" parent="DVrZE9xDPVvh2_FHzCL8-44" vertex="1" connectable="0">
          <mxGeometry x="-0.1273" y="-1" relative="1" as="geometry">
            <mxPoint as="offset" />
          </mxGeometry>
        </mxCell>
        <mxCell id="DVrZE9xDPVvh2_FHzCL8-41" value="EnemyFactory" style="html=1;whiteSpace=wrap;" parent="1" vertex="1">
          <mxGeometry x="948" y="870" width="110" height="50" as="geometry" />
        </mxCell>
        <mxCell id="DVrZE9xDPVvh2_FHzCL8-54" value="actions" style="shape=umlFrame;whiteSpace=wrap;html=1;pointerEvents=0;fillColor=#dae8fc;strokeColor=#6c8ebf;strokeWidth=5;" parent="1" vertex="1">
          <mxGeometry x="2349" y="-255" width="300" height="200" as="geometry" />
        </mxCell>
        <mxCell id="DVrZE9xDPVvh2_FHzCL8-55" value="gameactions" style="shape=umlFrame;whiteSpace=wrap;html=1;pointerEvents=0;width=81;height=30;fillColor=#dae8fc;strokeColor=#6c8ebf;strokeWidth=5;" parent="1" vertex="1">
          <mxGeometry x="1879" y="760" width="1241" height="520" as="geometry" />
        </mxCell>
        <mxCell id="DVrZE9xDPVvh2_FHzCL8-56" value="&lt;i&gt;Action&lt;/i&gt;" style="html=1;whiteSpace=wrap;" parent="1" vertex="1">
          <mxGeometry x="2444" y="-185" width="110" height="50" as="geometry" />
        </mxCell>
        <mxCell id="DVrZE9xDPVvh2_FHzCL8-57" value="behaviours" style="shape=umlFrame;whiteSpace=wrap;html=1;pointerEvents=0;width=70;height=30;fillColor=#dae8fc;strokeColor=#6c8ebf;strokeWidth=5;" parent="1" vertex="1">
          <mxGeometry x="1440" y="280" width="720" height="360" as="geometry" />
        </mxCell>
        <mxCell id="DVrZE9xDPVvh2_FHzCL8-64" style="edgeStyle=orthogonalEdgeStyle;rounded=0;orthogonalLoop=1;jettySize=auto;html=1;exitX=0.5;exitY=0;exitDx=0;exitDy=0;dashed=1;endArrow=block;endFill=0;" parent="1" source="DVrZE9xDPVvh2_FHzCL8-58" edge="1">
          <mxGeometry relative="1" as="geometry">
            <mxPoint x="1800" y="400" as="targetPoint" />
          </mxGeometry>
        </mxCell>
        <mxCell id="DVrZE9xDPVvh2_FHzCL8-68" value="Implements" style="edgeLabel;html=1;align=center;verticalAlign=middle;resizable=0;points=[];" parent="DVrZE9xDPVvh2_FHzCL8-64" vertex="1" connectable="0">
          <mxGeometry x="-0.8265" relative="1" as="geometry">
            <mxPoint y="-23" as="offset" />
          </mxGeometry>
        </mxCell>
        <mxCell id="DVrZE9xDPVvh2_FHzCL8-58" value="AttackBehaviour" style="html=1;whiteSpace=wrap;" parent="1" vertex="1">
          <mxGeometry x="1670" y="519" width="110" height="50" as="geometry" />
        </mxCell>
        <mxCell id="DVrZE9xDPVvh2_FHzCL8-65" style="edgeStyle=orthogonalEdgeStyle;rounded=0;orthogonalLoop=1;jettySize=auto;html=1;exitX=0.5;exitY=0;exitDx=0;exitDy=0;entryX=0.5;entryY=1;entryDx=0;entryDy=0;dashed=1;endArrow=block;endFill=0;" parent="1" source="DVrZE9xDPVvh2_FHzCL8-59" target="DVrZE9xDPVvh2_FHzCL8-62" edge="1">
          <mxGeometry relative="1" as="geometry" />
        </mxCell>
        <mxCell id="DVrZE9xDPVvh2_FHzCL8-69" value="Implements" style="edgeLabel;html=1;align=center;verticalAlign=middle;resizable=0;points=[];" parent="DVrZE9xDPVvh2_FHzCL8-65" vertex="1" connectable="0">
          <mxGeometry x="-0.8393" y="1" relative="1" as="geometry">
            <mxPoint x="1" y="-24" as="offset" />
          </mxGeometry>
        </mxCell>
        <mxCell id="DVrZE9xDPVvh2_FHzCL8-59" value="FollowBehaviour" style="html=1;whiteSpace=wrap;" parent="1" vertex="1">
          <mxGeometry x="1820" y="519" width="110" height="50" as="geometry" />
        </mxCell>
        <mxCell id="DVrZE9xDPVvh2_FHzCL8-66" style="edgeStyle=orthogonalEdgeStyle;rounded=0;orthogonalLoop=1;jettySize=auto;html=1;exitX=0.5;exitY=0;exitDx=0;exitDy=0;entryX=0.5;entryY=1;entryDx=0;entryDy=0;dashed=1;endArrow=block;endFill=0;" parent="1" source="DVrZE9xDPVvh2_FHzCL8-60" target="DVrZE9xDPVvh2_FHzCL8-62" edge="1">
          <mxGeometry relative="1" as="geometry" />
        </mxCell>
        <mxCell id="DVrZE9xDPVvh2_FHzCL8-71" value="Implements" style="edgeLabel;html=1;align=center;verticalAlign=middle;resizable=0;points=[];" parent="DVrZE9xDPVvh2_FHzCL8-66" vertex="1" connectable="0">
          <mxGeometry x="-0.9094" y="2" relative="1" as="geometry">
            <mxPoint x="2" y="-24" as="offset" />
          </mxGeometry>
        </mxCell>
        <mxCell id="DVrZE9xDPVvh2_FHzCL8-60" value="WanderBehaviour" style="html=1;whiteSpace=wrap;" parent="1" vertex="1">
          <mxGeometry x="1970" y="519" width="110" height="50" as="geometry" />
        </mxCell>
        <mxCell id="DVrZE9xDPVvh2_FHzCL8-63" style="edgeStyle=orthogonalEdgeStyle;rounded=0;orthogonalLoop=1;jettySize=auto;html=1;exitX=0.5;exitY=0;exitDx=0;exitDy=0;entryX=0.5;entryY=1;entryDx=0;entryDy=0;dashed=1;endArrow=block;endFill=0;" parent="1" source="DVrZE9xDPVvh2_FHzCL8-61" target="DVrZE9xDPVvh2_FHzCL8-62" edge="1">
          <mxGeometry relative="1" as="geometry" />
        </mxCell>
        <mxCell id="DVrZE9xDPVvh2_FHzCL8-67" value="Implements" style="edgeLabel;html=1;align=center;verticalAlign=middle;resizable=0;points=[];" parent="DVrZE9xDPVvh2_FHzCL8-63" vertex="1" connectable="0">
          <mxGeometry x="-0.8949" y="1" relative="1" as="geometry">
            <mxPoint x="1" y="-21" as="offset" />
          </mxGeometry>
        </mxCell>
        <mxCell id="DVrZE9xDPVvh2_FHzCL8-61" value="SkillBehaviour" style="html=1;whiteSpace=wrap;" parent="1" vertex="1">
          <mxGeometry x="1520" y="519" width="110" height="50" as="geometry" />
        </mxCell>
        <mxCell id="DVrZE9xDPVvh2_FHzCL8-78" style="edgeStyle=orthogonalEdgeStyle;rounded=0;orthogonalLoop=1;jettySize=auto;html=1;dashed=1;endArrow=open;endFill=0;exitX=1;exitY=0.5;exitDx=0;exitDy=0;entryX=0;entryY=0.5;entryDx=0;entryDy=0;" parent="1" source="DVrZE9xDPVvh2_FHzCL8-62" target="DVrZE9xDPVvh2_FHzCL8-56" edge="1">
          <mxGeometry relative="1" as="geometry">
            <mxPoint x="2444" y="-160" as="targetPoint" />
            <Array as="points">
              <mxPoint x="2080" y="375" />
              <mxPoint x="2080" y="-160" />
            </Array>
          </mxGeometry>
        </mxCell>
        <mxCell id="DVrZE9xDPVvh2_FHzCL8-80" value="&amp;lt;&amp;lt;Returns&amp;gt;&amp;gt;" style="edgeLabel;html=1;align=center;verticalAlign=middle;resizable=0;points=[];" parent="DVrZE9xDPVvh2_FHzCL8-78" vertex="1" connectable="0">
          <mxGeometry x="-0.7431" y="-1" relative="1" as="geometry">
            <mxPoint x="-22" y="-1" as="offset" />
          </mxGeometry>
        </mxCell>
        <mxCell id="DVrZE9xDPVvh2_FHzCL8-62" value="&lt;i&gt;&amp;lt;&amp;lt;Interface&amp;gt;&amp;gt;&lt;br&gt;Behaviour&lt;br&gt;&lt;/i&gt;" style="html=1;whiteSpace=wrap;" parent="1" vertex="1">
          <mxGeometry x="1745" y="350" width="110" height="50" as="geometry" />
        </mxCell>
        <mxCell id="DVrZE9xDPVvh2_FHzCL8-81" value="standardactions" style="shape=umlFrame;whiteSpace=wrap;html=1;pointerEvents=0;width=101;height=30;fillColor=#dae8fc;strokeColor=#6c8ebf;strokeWidth=5;" parent="1" vertex="1">
          <mxGeometry x="2759" y="960" width="300" height="280" as="geometry" />
        </mxCell>
        <mxCell id="DVrZE9xDPVvh2_FHzCL8-82" value="skillactions" style="shape=umlFrame;whiteSpace=wrap;html=1;pointerEvents=0;width=71;height=25;fillColor=#dae8fc;strokeColor=#6c8ebf;strokeWidth=5;" parent="1" vertex="1">
          <mxGeometry x="2320" y="800" width="360" height="440" as="geometry" />
        </mxCell>
        <mxCell id="DVrZE9xDPVvh2_FHzCL8-83" value="deathactions" style="shape=umlFrame;whiteSpace=wrap;html=1;pointerEvents=0;width=81;height=30;fillColor=#dae8fc;strokeColor=#6c8ebf;strokeWidth=5;" parent="1" vertex="1">
          <mxGeometry x="1920" y="960" width="340" height="280" as="geometry" />
        </mxCell>
        <mxCell id="DVrZE9xDPVvh2_FHzCL8-92" style="edgeStyle=orthogonalEdgeStyle;rounded=0;orthogonalLoop=1;jettySize=auto;html=1;exitX=0.5;exitY=0;exitDx=0;exitDy=0;entryX=0.5;entryY=1;entryDx=0;entryDy=0;endArrow=block;endFill=0;" parent="1" source="DVrZE9xDPVvh2_FHzCL8-84" target="DVrZE9xDPVvh2_FHzCL8-56" edge="1">
          <mxGeometry relative="1" as="geometry">
            <mxPoint x="2640" y="177.3333740234375" as="targetPoint" />
          </mxGeometry>
        </mxCell>
        <mxCell id="DVrZE9xDPVvh2_FHzCL8-95" value="Extends" style="edgeLabel;html=1;align=center;verticalAlign=middle;resizable=0;points=[];" parent="DVrZE9xDPVvh2_FHzCL8-92" vertex="1" connectable="0">
          <mxGeometry x="-0.6973" y="4" relative="1" as="geometry">
            <mxPoint x="4" y="-118" as="offset" />
          </mxGeometry>
        </mxCell>
        <mxCell id="DVrZE9xDPVvh2_FHzCL8-84" value="&lt;i&gt;SkillAction&lt;/i&gt;" style="html=1;whiteSpace=wrap;" parent="1" vertex="1">
          <mxGeometry x="2444.5" y="1000" width="110" height="50" as="geometry" />
        </mxCell>
        <mxCell id="DVrZE9xDPVvh2_FHzCL8-91" style="edgeStyle=orthogonalEdgeStyle;rounded=0;orthogonalLoop=1;jettySize=auto;html=1;exitX=0.5;exitY=0;exitDx=0;exitDy=0;entryX=0.5;entryY=1;entryDx=0;entryDy=0;endArrow=block;endFill=0;" parent="1" source="DVrZE9xDPVvh2_FHzCL8-86" target="DVrZE9xDPVvh2_FHzCL8-56" edge="1">
          <mxGeometry relative="1" as="geometry">
            <Array as="points">
              <mxPoint x="2085" y="680" />
              <mxPoint x="2499" y="680" />
            </Array>
          </mxGeometry>
        </mxCell>
        <mxCell id="DVrZE9xDPVvh2_FHzCL8-94" value="Extends" style="edgeLabel;html=1;align=center;verticalAlign=middle;resizable=0;points=[];" parent="DVrZE9xDPVvh2_FHzCL8-91" vertex="1" connectable="0">
          <mxGeometry x="-0.5763" y="4" relative="1" as="geometry">
            <mxPoint x="4" y="-4" as="offset" />
          </mxGeometry>
        </mxCell>
        <mxCell id="DVrZE9xDPVvh2_FHzCL8-86" value="&lt;i&gt;DeathAction&lt;/i&gt;" style="html=1;whiteSpace=wrap;" parent="1" vertex="1">
          <mxGeometry x="2035" y="1050" width="110" height="50" as="geometry" />
        </mxCell>
        <mxCell id="DVrZE9xDPVvh2_FHzCL8-93" style="edgeStyle=orthogonalEdgeStyle;rounded=0;orthogonalLoop=1;jettySize=auto;html=1;exitX=0.5;exitY=0;exitDx=0;exitDy=0;entryX=0.5;entryY=1;entryDx=0;entryDy=0;endArrow=block;endFill=0;" parent="1" source="DVrZE9xDPVvh2_FHzCL8-90" target="DVrZE9xDPVvh2_FHzCL8-56" edge="1">
          <mxGeometry relative="1" as="geometry">
            <mxPoint x="2660" y="130" as="targetPoint" />
            <Array as="points">
              <mxPoint x="2909" y="680" />
              <mxPoint x="2499" y="680" />
            </Array>
          </mxGeometry>
        </mxCell>
        <mxCell id="DVrZE9xDPVvh2_FHzCL8-96" value="Extends" style="edgeLabel;html=1;align=center;verticalAlign=middle;resizable=0;points=[];" parent="DVrZE9xDPVvh2_FHzCL8-93" vertex="1" connectable="0">
          <mxGeometry x="-0.579" y="-4" relative="1" as="geometry">
            <mxPoint x="-4" y="-41" as="offset" />
          </mxGeometry>
        </mxCell>
        <mxCell id="DVrZE9xDPVvh2_FHzCL8-90" value="AttackAction" style="html=1;whiteSpace=wrap;" parent="1" vertex="1">
          <mxGeometry x="2854" y="1095" width="110" height="50" as="geometry" />
        </mxCell>
        <mxCell id="DVrZE9xDPVvh2_FHzCL8-104" style="edgeStyle=orthogonalEdgeStyle;rounded=0;orthogonalLoop=1;jettySize=auto;html=1;exitX=0.5;exitY=0;exitDx=0;exitDy=0;entryX=0.5;entryY=1;entryDx=0;entryDy=0;endArrow=classic;endFill=0;" parent="1" source="DVrZE9xDPVvh2_FHzCL8-101" target="DVrZE9xDPVvh2_FHzCL8-84" edge="1">
          <mxGeometry relative="1" as="geometry" />
        </mxCell>
        <mxCell id="DVrZE9xDPVvh2_FHzCL8-105" value="Extends" style="edgeLabel;html=1;align=center;verticalAlign=middle;resizable=0;points=[];" parent="DVrZE9xDPVvh2_FHzCL8-104" vertex="1" connectable="0">
          <mxGeometry x="-0.5572" y="-2" relative="1" as="geometry">
            <mxPoint x="-2" y="14" as="offset" />
          </mxGeometry>
        </mxCell>
        <mxCell id="DVrZE9xDPVvh2_FHzCL8-101" value="SpinningAttack" style="html=1;whiteSpace=wrap;" parent="1" vertex="1">
          <mxGeometry x="2518" y="1132" width="110" height="50" as="geometry" />
        </mxCell>
        <mxCell id="DVrZE9xDPVvh2_FHzCL8-103" style="edgeStyle=orthogonalEdgeStyle;rounded=0;orthogonalLoop=1;jettySize=auto;html=1;exitX=0.5;exitY=0;exitDx=0;exitDy=0;entryX=0.5;entryY=1;entryDx=0;entryDy=0;endArrow=classic;endFill=0;" parent="1" source="DVrZE9xDPVvh2_FHzCL8-102" target="DVrZE9xDPVvh2_FHzCL8-84" edge="1">
          <mxGeometry relative="1" as="geometry">
            <Array as="points">
              <mxPoint x="2425" y="1091" />
              <mxPoint x="2499" y="1091" />
            </Array>
          </mxGeometry>
        </mxCell>
        <mxCell id="DVrZE9xDPVvh2_FHzCL8-106" value="Extends" style="edgeLabel;html=1;align=center;verticalAlign=middle;resizable=0;points=[];" parent="DVrZE9xDPVvh2_FHzCL8-103" vertex="1" connectable="0">
          <mxGeometry x="-0.5749" y="2" relative="1" as="geometry">
            <mxPoint x="2" y="13" as="offset" />
          </mxGeometry>
        </mxCell>
        <mxCell id="DVrZE9xDPVvh2_FHzCL8-102" value="Slam" style="html=1;whiteSpace=wrap;" parent="1" vertex="1">
          <mxGeometry x="2370" y="1132" width="110" height="50" as="geometry" />
        </mxCell>
        <mxCell id="DVrZE9xDPVvh2_FHzCL8-108" style="edgeStyle=orthogonalEdgeStyle;rounded=0;orthogonalLoop=1;jettySize=auto;html=1;exitX=0.5;exitY=0;exitDx=0;exitDy=0;entryX=0.5;entryY=1;entryDx=0;entryDy=0;endArrow=block;endFill=0;" parent="1" source="DVrZE9xDPVvh2_FHzCL8-107" target="DVrZE9xDPVvh2_FHzCL8-86" edge="1">
          <mxGeometry relative="1" as="geometry" />
        </mxCell>
        <mxCell id="DVrZE9xDPVvh2_FHzCL8-109" value="Extends" style="edgeLabel;html=1;align=center;verticalAlign=middle;resizable=0;points=[];" parent="DVrZE9xDPVvh2_FHzCL8-108" vertex="1" connectable="0">
          <mxGeometry x="-0.2619" y="-1" relative="1" as="geometry">
            <mxPoint x="-20" y="14" as="offset" />
          </mxGeometry>
        </mxCell>
        <mxCell id="DVrZE9xDPVvh2_FHzCL8-116" style="edgeStyle=orthogonalEdgeStyle;rounded=0;orthogonalLoop=1;jettySize=auto;html=1;exitX=0.5;exitY=1;exitDx=0;exitDy=0;entryX=0.25;entryY=1;entryDx=0;entryDy=0;dashed=1;endArrow=open;endFill=0;" parent="1" source="DVrZE9xDPVvh2_FHzCL8-107" target="DVrZE9xDPVvh2_FHzCL8-41" edge="1">
          <mxGeometry relative="1" as="geometry">
            <Array as="points">
              <mxPoint x="2005" y="1220" />
              <mxPoint x="2005" y="1320" />
              <mxPoint x="976" y="1320" />
            </Array>
          </mxGeometry>
        </mxCell>
        <mxCell id="nA44q0fjmFgXWdIEp-3O-37" value="&amp;lt;&amp;lt;Uses&amp;gt;&amp;gt;" style="edgeLabel;html=1;align=center;verticalAlign=middle;resizable=0;points=[];" parent="DVrZE9xDPVvh2_FHzCL8-116" vertex="1" connectable="0">
          <mxGeometry x="-0.5936" y="-1" relative="1" as="geometry">
            <mxPoint x="2" as="offset" />
          </mxGeometry>
        </mxCell>
        <mxCell id="DVrZE9xDPVvh2_FHzCL8-107" value="SkeletonDeathAction" style="html=1;whiteSpace=wrap;" parent="1" vertex="1">
          <mxGeometry x="1945" y="1170" width="130" height="50" as="geometry" />
        </mxCell>
        <mxCell id="DVrZE9xDPVvh2_FHzCL8-122" value="weapons" style="shape=umlFrame;whiteSpace=wrap;html=1;pointerEvents=0;fillColor=#dae8fc;strokeColor=#6c8ebf;strokeWidth=5;" parent="1" vertex="1">
          <mxGeometry x="3351" y="-280" width="350" height="250" as="geometry" />
        </mxCell>
        <mxCell id="DVrZE9xDPVvh2_FHzCL8-128" style="edgeStyle=orthogonalEdgeStyle;rounded=0;orthogonalLoop=1;jettySize=auto;html=1;exitX=0.5;exitY=0;exitDx=0;exitDy=0;entryX=0.5;entryY=1;entryDx=0;entryDy=0;endArrow=block;endFill=0;dashed=1;" parent="1" source="DVrZE9xDPVvh2_FHzCL8-124" target="DVrZE9xDPVvh2_FHzCL8-126" edge="1">
          <mxGeometry relative="1" as="geometry" />
        </mxCell>
        <mxCell id="DVrZE9xDPVvh2_FHzCL8-131" value="Implements" style="edgeLabel;html=1;align=center;verticalAlign=middle;resizable=0;points=[];" parent="DVrZE9xDPVvh2_FHzCL8-128" vertex="1" connectable="0">
          <mxGeometry x="-0.6072" y="-1" relative="1" as="geometry">
            <mxPoint x="-1" y="10" as="offset" />
          </mxGeometry>
        </mxCell>
        <mxCell id="DVrZE9xDPVvh2_FHzCL8-124" value="&lt;i&gt;WeaponItem&lt;/i&gt;" style="html=1;whiteSpace=wrap;" parent="1" vertex="1">
          <mxGeometry x="3396" y="-120" width="110" height="50" as="geometry" />
        </mxCell>
        <mxCell id="DVrZE9xDPVvh2_FHzCL8-129" style="edgeStyle=orthogonalEdgeStyle;rounded=0;orthogonalLoop=1;jettySize=auto;html=1;exitX=0.5;exitY=0;exitDx=0;exitDy=0;entryX=0.5;entryY=1;entryDx=0;entryDy=0;endArrow=block;endFill=0;dashed=1;" parent="1" source="DVrZE9xDPVvh2_FHzCL8-125" target="DVrZE9xDPVvh2_FHzCL8-126" edge="1">
          <mxGeometry relative="1" as="geometry" />
        </mxCell>
        <mxCell id="DVrZE9xDPVvh2_FHzCL8-130" value="Implements" style="edgeLabel;html=1;align=center;verticalAlign=middle;resizable=0;points=[];" parent="DVrZE9xDPVvh2_FHzCL8-129" vertex="1" connectable="0">
          <mxGeometry x="-0.6172" y="-2" relative="1" as="geometry">
            <mxPoint x="-2" y="10" as="offset" />
          </mxGeometry>
        </mxCell>
        <mxCell id="DVrZE9xDPVvh2_FHzCL8-125" value="IntrinsicWeapon" style="html=1;whiteSpace=wrap;" parent="1" vertex="1">
          <mxGeometry x="3546" y="-120" width="110" height="50" as="geometry" />
        </mxCell>
        <mxCell id="DVrZE9xDPVvh2_FHzCL8-126" value="&lt;i&gt;&amp;lt;&amp;lt;Interface&amp;gt;&amp;gt;&lt;br&gt;Weapon&lt;br&gt;&lt;/i&gt;" style="html=1;whiteSpace=wrap;" parent="1" vertex="1">
          <mxGeometry x="3466" y="-250" width="120" height="50" as="geometry" />
        </mxCell>
        <mxCell id="DVrZE9xDPVvh2_FHzCL8-134" style="edgeStyle=orthogonalEdgeStyle;rounded=0;orthogonalLoop=1;jettySize=auto;html=1;entryX=0.5;entryY=1;entryDx=0;entryDy=0;endArrow=block;endFill=0;exitX=0.5;exitY=0;exitDx=0;exitDy=0;" parent="1" source="GWkKmIc5PLOBVZ-B5JVU-1" target="DVrZE9xDPVvh2_FHzCL8-124" edge="1">
          <mxGeometry relative="1" as="geometry">
            <mxPoint x="3451" y="838" as="sourcePoint" />
          </mxGeometry>
        </mxCell>
        <mxCell id="DVrZE9xDPVvh2_FHzCL8-137" value="Extends" style="edgeLabel;html=1;align=center;verticalAlign=middle;resizable=0;points=[];" parent="DVrZE9xDPVvh2_FHzCL8-134" vertex="1" connectable="0">
          <mxGeometry x="0.4423" y="-3" relative="1" as="geometry">
            <mxPoint x="-3" y="11" as="offset" />
          </mxGeometry>
        </mxCell>
        <mxCell id="DVrZE9xDPVvh2_FHzCL8-144" style="edgeStyle=orthogonalEdgeStyle;rounded=0;orthogonalLoop=1;jettySize=auto;html=1;endArrow=open;endFill=0;dashed=1;entryX=0.5;entryY=1;entryDx=0;entryDy=0;exitX=0.5;exitY=1;exitDx=0;exitDy=0;" parent="1" source="GWkKmIc5PLOBVZ-B5JVU-1" target="DVrZE9xDPVvh2_FHzCL8-101" edge="1">
          <mxGeometry relative="1" as="geometry">
            <Array as="points">
              <mxPoint x="3451" y="1360" />
              <mxPoint x="2573" y="1360" />
            </Array>
            <mxPoint x="2570" y="1200" as="targetPoint" />
          </mxGeometry>
        </mxCell>
        <mxCell id="nA44q0fjmFgXWdIEp-3O-35" value="&amp;lt;&amp;lt;Returns&amp;gt;&amp;gt;" style="edgeLabel;html=1;align=center;verticalAlign=middle;resizable=0;points=[];" parent="DVrZE9xDPVvh2_FHzCL8-144" vertex="1" connectable="0">
          <mxGeometry x="-0.0151" y="-2" relative="1" as="geometry">
            <mxPoint x="40" as="offset" />
          </mxGeometry>
        </mxCell>
        <mxCell id="nA44q0fjmFgXWdIEp-3O-29" style="edgeStyle=orthogonalEdgeStyle;rounded=0;orthogonalLoop=1;jettySize=auto;html=1;exitX=0;exitY=0.5;exitDx=0;exitDy=0;entryX=1;entryY=0.5;entryDx=0;entryDy=0;dashed=1;endArrow=block;endFill=0;" parent="1" source="GWkKmIc5PLOBVZ-B5JVU-1" target="nA44q0fjmFgXWdIEp-3O-13" edge="1">
          <mxGeometry relative="1" as="geometry">
            <mxPoint x="3396" y="863" as="sourcePoint" />
          </mxGeometry>
        </mxCell>
        <mxCell id="nA44q0fjmFgXWdIEp-3O-33" value="Implements" style="edgeLabel;html=1;align=center;verticalAlign=middle;resizable=0;points=[];" parent="nA44q0fjmFgXWdIEp-3O-29" vertex="1" connectable="0">
          <mxGeometry x="-0.4826" y="-1" relative="1" as="geometry">
            <mxPoint x="55" y="1" as="offset" />
          </mxGeometry>
        </mxCell>
        <mxCell id="DVrZE9xDPVvh2_FHzCL8-149" value="enums" style="shape=umlFrame;whiteSpace=wrap;html=1;pointerEvents=0;fillColor=#dae8fc;strokeColor=#6c8ebf;strokeWidth=5;" parent="1" vertex="1">
          <mxGeometry x="870" y="279" width="377" height="271" as="geometry" />
        </mxCell>
        <mxCell id="DVrZE9xDPVvh2_FHzCL8-150" value="&amp;lt;&amp;lt;enumeration&amp;gt;&amp;gt;&lt;br&gt;Species" style="html=1;whiteSpace=wrap;" parent="1" vertex="1">
          <mxGeometry x="1078" y="380" width="110" height="50" as="geometry" />
        </mxCell>
        <mxCell id="DVrZE9xDPVvh2_FHzCL8-162" value="&lt;b&gt;&lt;font style=&quot;font-size: 30px;&quot;&gt;game&lt;/font&gt;&lt;/b&gt;" style="shape=umlFrame;whiteSpace=wrap;html=1;pointerEvents=0;strokeWidth=5;fillColor=#f8cecc;strokeColor=#b85450;width=160;height=60;" parent="1" vertex="1">
          <mxGeometry x="160" y="160" width="3680" height="1280" as="geometry" />
        </mxCell>
        <mxCell id="DVrZE9xDPVvh2_FHzCL8-163" value="&lt;b&gt;&lt;font style=&quot;font-size: 30px;&quot;&gt;Engine&lt;/font&gt;&lt;/b&gt;" style="shape=umlFrame;whiteSpace=wrap;html=1;pointerEvents=0;strokeWidth=5;fillColor=#f8cecc;strokeColor=#b85450;width=130;height=60;" parent="1" vertex="1">
          <mxGeometry x="160" y="-400" width="3680" height="480" as="geometry" />
        </mxCell>
        <mxCell id="nA44q0fjmFgXWdIEp-3O-6" style="edgeStyle=orthogonalEdgeStyle;rounded=0;orthogonalLoop=1;jettySize=auto;html=1;exitX=0.5;exitY=1;exitDx=0;exitDy=0;entryX=0.5;entryY=0;entryDx=0;entryDy=0;endArrow=open;endFill=0;" parent="1" source="nA44q0fjmFgXWdIEp-3O-5" target="DVrZE9xDPVvh2_FHzCL8-3" edge="1">
          <mxGeometry relative="1" as="geometry" />
        </mxCell>
        <mxCell id="nA44q0fjmFgXWdIEp-3O-7" value="Has" style="edgeLabel;html=1;align=center;verticalAlign=middle;resizable=0;points=[];" parent="nA44q0fjmFgXWdIEp-3O-6" vertex="1" connectable="0">
          <mxGeometry x="-0.252" y="-1" relative="1" as="geometry">
            <mxPoint x="1" y="6" as="offset" />
          </mxGeometry>
        </mxCell>
        <mxCell id="nA44q0fjmFgXWdIEp-3O-8" value="1" style="edgeLabel;html=1;align=center;verticalAlign=middle;resizable=0;points=[];" parent="nA44q0fjmFgXWdIEp-3O-6" vertex="1" connectable="0">
          <mxGeometry x="-0.8711" y="1" relative="1" as="geometry">
            <mxPoint x="11" y="6" as="offset" />
          </mxGeometry>
        </mxCell>
        <mxCell id="nA44q0fjmFgXWdIEp-3O-9" value="1" style="edgeLabel;html=1;align=center;verticalAlign=middle;resizable=0;points=[];" parent="nA44q0fjmFgXWdIEp-3O-6" vertex="1" connectable="0">
          <mxGeometry x="0.6125" relative="1" as="geometry">
            <mxPoint x="12" as="offset" />
          </mxGeometry>
        </mxCell>
        <mxCell id="nA44q0fjmFgXWdIEp-3O-5" value="Location" style="html=1;whiteSpace=wrap;" parent="1" vertex="1">
          <mxGeometry x="453" y="-300" width="110" height="50" as="geometry" />
        </mxCell>
        <mxCell id="nA44q0fjmFgXWdIEp-3O-31" style="edgeStyle=orthogonalEdgeStyle;rounded=0;orthogonalLoop=1;jettySize=auto;html=1;exitX=0.5;exitY=1;exitDx=0;exitDy=0;entryX=0;entryY=0.5;entryDx=0;entryDy=0;dashed=1;endArrow=open;endFill=0;" parent="1" source="nA44q0fjmFgXWdIEp-3O-13" target="DVrZE9xDPVvh2_FHzCL8-84" edge="1">
          <mxGeometry relative="1" as="geometry" />
        </mxCell>
        <mxCell id="nA44q0fjmFgXWdIEp-3O-34" value="&amp;lt;&amp;lt;Returns&amp;gt;&amp;gt;" style="edgeLabel;html=1;align=center;verticalAlign=middle;resizable=0;points=[];" parent="nA44q0fjmFgXWdIEp-3O-31" vertex="1" connectable="0">
          <mxGeometry x="-0.3297" y="-1" relative="1" as="geometry">
            <mxPoint as="offset" />
          </mxGeometry>
        </mxCell>
        <mxCell id="nA44q0fjmFgXWdIEp-3O-13" value="&lt;i&gt;&amp;lt;&amp;lt;Interface&amp;gt;&amp;gt;&lt;br&gt;Skilled&lt;br&gt;&lt;/i&gt;" style="html=1;whiteSpace=wrap;" parent="1" vertex="1">
          <mxGeometry x="2354" y="838" width="110" height="50" as="geometry" />
        </mxCell>
        <mxCell id="nA44q0fjmFgXWdIEp-3O-17" style="edgeStyle=orthogonalEdgeStyle;rounded=0;orthogonalLoop=1;jettySize=auto;html=1;exitX=0.5;exitY=0;exitDx=0;exitDy=0;entryX=0.5;entryY=1;entryDx=0;entryDy=0;endArrow=block;endFill=0;" parent="1" source="nA44q0fjmFgXWdIEp-3O-15" target="DVrZE9xDPVvh2_FHzCL8-86" edge="1">
          <mxGeometry relative="1" as="geometry" />
        </mxCell>
        <mxCell id="nA44q0fjmFgXWdIEp-3O-18" value="Extends" style="edgeLabel;html=1;align=center;verticalAlign=middle;resizable=0;points=[];" parent="nA44q0fjmFgXWdIEp-3O-17" vertex="1" connectable="0">
          <mxGeometry x="-0.6696" y="1" relative="1" as="geometry">
            <mxPoint x="1" y="5" as="offset" />
          </mxGeometry>
        </mxCell>
        <mxCell id="nA44q0fjmFgXWdIEp-3O-15" value="StandardDeathAction" style="html=1;whiteSpace=wrap;" parent="1" vertex="1">
          <mxGeometry x="2105" y="1170" width="130" height="50" as="geometry" />
        </mxCell>
        <mxCell id="nA44q0fjmFgXWdIEp-3O-36" value="gameweapons" style="shape=umlFrame;whiteSpace=wrap;html=1;pointerEvents=0;width=90;height=37;strokeWidth=5;fillColor=#dae8fc;strokeColor=#6c8ebf;" parent="1" vertex="1">
          <mxGeometry x="3300" y="783" width="300" height="257" as="geometry" />
        </mxCell>
        <mxCell id="GWkKmIc5PLOBVZ-B5JVU-1" value="Grossmesser" style="html=1;whiteSpace=wrap;" parent="1" vertex="1">
          <mxGeometry x="3395" y="838" width="110" height="50" as="geometry" />
        </mxCell>
        <mxCell id="JSlfss8V1tPt0fPpGnAS-5" style="edgeStyle=orthogonalEdgeStyle;rounded=0;orthogonalLoop=1;jettySize=auto;html=1;exitX=1;exitY=0.5;exitDx=0;exitDy=0;entryX=0;entryY=0.5;entryDx=0;entryDy=0;dashed=1;endArrow=open;endFill=0;" edge="1" parent="1" source="JSlfss8V1tPt0fPpGnAS-1" target="DVrZE9xDPVvh2_FHzCL8-86">
          <mxGeometry relative="1" as="geometry">
            <Array as="points">
              <mxPoint x="1850" y="775" />
              <mxPoint x="1850" y="1075" />
            </Array>
          </mxGeometry>
        </mxCell>
        <mxCell id="JSlfss8V1tPt0fPpGnAS-6" value="&amp;lt;&amp;lt;Returns&amp;gt;&amp;gt;" style="edgeLabel;html=1;align=center;verticalAlign=middle;resizable=0;points=[];" vertex="1" connectable="0" parent="JSlfss8V1tPt0fPpGnAS-5">
          <mxGeometry x="-0.1122" y="5" relative="1" as="geometry">
            <mxPoint x="-2" y="5" as="offset" />
          </mxGeometry>
        </mxCell>
        <mxCell id="JSlfss8V1tPt0fPpGnAS-12" style="edgeStyle=orthogonalEdgeStyle;rounded=0;orthogonalLoop=1;jettySize=auto;html=1;exitX=0;exitY=0.5;exitDx=0;exitDy=0;entryX=0.5;entryY=1;entryDx=0;entryDy=0;endArrow=open;endFill=0;" edge="1" parent="1" source="JSlfss8V1tPt0fPpGnAS-1" target="JSlfss8V1tPt0fPpGnAS-2">
          <mxGeometry relative="1" as="geometry" />
        </mxCell>
        <mxCell id="JSlfss8V1tPt0fPpGnAS-14" value="Has" style="edgeLabel;html=1;align=center;verticalAlign=middle;resizable=0;points=[];" vertex="1" connectable="0" parent="JSlfss8V1tPt0fPpGnAS-12">
          <mxGeometry x="0.3409" y="1" relative="1" as="geometry">
            <mxPoint as="offset" />
          </mxGeometry>
        </mxCell>
        <mxCell id="JSlfss8V1tPt0fPpGnAS-16" value="1..4" style="edgeLabel;html=1;align=center;verticalAlign=middle;resizable=0;points=[];" vertex="1" connectable="0" parent="JSlfss8V1tPt0fPpGnAS-12">
          <mxGeometry x="0.9302" y="1" relative="1" as="geometry">
            <mxPoint x="-22" y="-12" as="offset" />
          </mxGeometry>
        </mxCell>
        <mxCell id="JSlfss8V1tPt0fPpGnAS-17" value="1" style="edgeLabel;html=1;align=center;verticalAlign=middle;resizable=0;points=[];" vertex="1" connectable="0" parent="JSlfss8V1tPt0fPpGnAS-12">
          <mxGeometry x="-0.959" y="2" relative="1" as="geometry">
            <mxPoint x="5" y="-17" as="offset" />
          </mxGeometry>
        </mxCell>
        <mxCell id="JSlfss8V1tPt0fPpGnAS-1" value="&lt;i&gt;Mortal&lt;/i&gt;" style="html=1;whiteSpace=wrap;" vertex="1" parent="1">
          <mxGeometry x="1268" y="750" width="110" height="50" as="geometry" />
        </mxCell>
        <mxCell id="JSlfss8V1tPt0fPpGnAS-2" value="&amp;lt;&amp;lt;enumeration&amp;gt;&amp;gt;&lt;br&gt;Status" style="html=1;whiteSpace=wrap;" vertex="1" parent="1">
          <mxGeometry x="928" y="380" width="110" height="50" as="geometry" />
        </mxCell>
      </root>
    </mxGraphModel>
  </diagram>
</mxfile>
